<mxfile host="app.diagrams.net" agent="Mozilla/5.0 (Windows NT 10.0; Win64; x64) AppleWebKit/537.36 (KHTML, like Gecko) Chrome/135.0.0.0 Safari/537.36 Edg/135.0.0.0" version="26.2.14">
  <diagram name="Page-1" id="jVy5ansgh5haitN2zPb1">
    <mxGraphModel dx="666" dy="792" grid="1" gridSize="10" guides="1" tooltips="1" connect="1" arrows="1" fold="1" page="1" pageScale="1" pageWidth="827" pageHeight="1169" math="0" shadow="0">
      <root>
        <mxCell id="0" />
        <mxCell id="1" parent="0" />
        <mxCell id="nLQTtZPJFhFnZga12o0D-1" value="&lt;b&gt;req&amp;nbsp;&lt;/b&gt;[Package] MyWaze Requirements [Define Route]" style="shape=umlFrame;whiteSpace=wrap;html=1;pointerEvents=0;width=320;height=30;" parent="1" vertex="1">
          <mxGeometry x="840" y="120" width="1720" height="1200" as="geometry" />
        </mxCell>
        <mxCell id="nLQTtZPJFhFnZga12o0D-2" value="&lt;p style=&quot;margin:0px;margin-top:4px;text-align:center;&quot;&gt;&lt;i&gt;&amp;lt;&amp;lt;requirement&amp;gt;&amp;gt;&lt;/i&gt;&lt;br&gt;&lt;b&gt;Define Route&lt;/b&gt;&lt;/p&gt;&lt;hr size=&quot;1&quot; style=&quot;border-style:solid;&quot;&gt;&lt;p style=&quot;margin:0px;margin-left:4px;&quot;&gt;Id=&quot;DR1&quot;&lt;/p&gt;&lt;p style=&quot;margin:0px;margin-left:4px;&quot;&gt;text=&quot;&lt;span id=&quot;docs-internal-guid-2a9801a0-7fff-4f0c-7176-f9042768ee36&quot;&gt;&lt;span style=&quot;font-family: Arial, sans-serif; background-color: transparent; font-variant-numeric: normal; font-variant-east-asian: normal; font-variant-alternates: normal; font-variant-position: normal; font-variant-emoji: normal; vertical-align: baseline; white-space-collapse: preserve;&quot;&gt;&lt;font&gt;The system shall allow the user to program a route.&lt;/font&gt;&lt;/span&gt;&lt;/span&gt;&quot;&lt;/p&gt;" style="verticalAlign=top;align=left;overflow=fill;html=1;whiteSpace=wrap;" parent="1" vertex="1">
          <mxGeometry x="1649.5" y="490" width="180" height="120" as="geometry" />
        </mxCell>
        <mxCell id="nLQTtZPJFhFnZga12o0D-39" style="edgeStyle=orthogonalEdgeStyle;rounded=0;orthogonalLoop=1;jettySize=auto;html=1;exitX=0.5;exitY=0;exitDx=0;exitDy=0;entryX=0.5;entryY=1;entryDx=0;entryDy=0;endArrow=circlePlus;endFill=0;" parent="1" source="nLQTtZPJFhFnZga12o0D-11" target="nLQTtZPJFhFnZga12o0D-2" edge="1">
          <mxGeometry relative="1" as="geometry" />
        </mxCell>
        <mxCell id="nLQTtZPJFhFnZga12o0D-11" value="&lt;p style=&quot;margin:0px;margin-top:4px;text-align:center;&quot;&gt;&lt;i&gt;&amp;lt;&amp;lt;requirement&amp;gt;&amp;gt;&lt;/i&gt;&lt;br&gt;&lt;b&gt;Calculate Several Routes&lt;/b&gt;&lt;/p&gt;&lt;hr size=&quot;1&quot; style=&quot;border-style:solid;&quot;&gt;&lt;p style=&quot;margin:0px;margin-left:4px;&quot;&gt;Id=&quot;DR1.1&quot;&lt;/p&gt;&lt;p style=&quot;margin:0px;margin-left:4px;&quot;&gt;text=&quot;&lt;span id=&quot;docs-internal-guid-ffcac9a9-7fff-ea1d-9a6b-a21baaa114f1&quot;&gt;&lt;span style=&quot;font-family: Arial, sans-serif; background-color: transparent; font-variant-numeric: normal; font-variant-east-asian: normal; font-variant-alternates: normal; font-variant-position: normal; font-variant-emoji: normal; vertical-align: baseline; white-space-collapse: preserve;&quot;&gt;&lt;font&gt;The system shall  calculate and display a list of &lt;/font&gt;&lt;/span&gt;&lt;/span&gt;&lt;strong style=&quot;background-color: transparent; color: light-dark(rgb(0, 0, 0), rgb(255, 255, 255));&quot; data-end=&quot;481&quot; data-start=&quot;458&quot;&gt;route options&lt;/strong&gt;&lt;span style=&quot;background-color: transparent; color: light-dark(rgb(0, 0, 0), rgb(255, 255, 255));&quot;&gt; (e.g., fastest, shortest, toll-free).&lt;/span&gt;&lt;span style=&quot;background-color: transparent; color: light-dark(rgb(0, 0, 0), rgb(255, 255, 255));&quot;&gt;&quot;&lt;/span&gt;&lt;/p&gt;" style="verticalAlign=top;align=left;overflow=fill;html=1;whiteSpace=wrap;" parent="1" vertex="1">
          <mxGeometry x="1430" y="660" width="180" height="120" as="geometry" />
        </mxCell>
        <mxCell id="nLQTtZPJFhFnZga12o0D-91" style="edgeStyle=orthogonalEdgeStyle;rounded=0;orthogonalLoop=1;jettySize=auto;html=1;exitX=0.5;exitY=1;exitDx=0;exitDy=0;entryX=0.5;entryY=0;entryDx=0;entryDy=0;endArrow=circlePlus;endFill=0;" parent="1" target="nLQTtZPJFhFnZga12o0D-2" edge="1">
          <mxGeometry relative="1" as="geometry">
            <mxPoint x="1339.75" y="450" as="sourcePoint" />
            <Array as="points">
              <mxPoint x="1340" y="460" />
              <mxPoint x="1740" y="460" />
            </Array>
          </mxGeometry>
        </mxCell>
        <mxCell id="nLQTtZPJFhFnZga12o0D-21" style="edgeStyle=orthogonalEdgeStyle;rounded=0;orthogonalLoop=1;jettySize=auto;html=1;endArrow=circlePlus;endFill=0;exitX=0.5;exitY=1;exitDx=0;exitDy=0;" parent="1" source="nLQTtZPJFhFnZga12o0D-22" edge="1">
          <mxGeometry relative="1" as="geometry">
            <mxPoint x="1740" y="490" as="targetPoint" />
            <Array as="points">
              <mxPoint x="1539" y="460" />
              <mxPoint x="1740" y="460" />
            </Array>
          </mxGeometry>
        </mxCell>
        <mxCell id="nLQTtZPJFhFnZga12o0D-22" value="&lt;p style=&quot;margin:0px;margin-top:4px;text-align:center;&quot;&gt;&lt;i&gt;&amp;lt;&amp;lt;requirement&amp;gt;&amp;gt;&lt;/i&gt;&lt;br&gt;&lt;b&gt;Availability&lt;/b&gt;&lt;/p&gt;&lt;hr size=&quot;1&quot; style=&quot;border-style:solid;&quot;&gt;&lt;p style=&quot;margin:0px;margin-left:4px;&quot;&gt;Id=&quot;NFR2&quot;&lt;/p&gt;&lt;p style=&quot;margin:0px;margin-left:4px;&quot;&gt;text=&quot;The system shall allow offline route calculation if the map data is pre-downloaded.&quot;&lt;/p&gt;" style="verticalAlign=top;align=left;overflow=fill;html=1;whiteSpace=wrap;" parent="1" vertex="1">
          <mxGeometry x="1449.25" y="330" width="180" height="120" as="geometry" />
        </mxCell>
        <mxCell id="nLQTtZPJFhFnZga12o0D-25" style="edgeStyle=orthogonalEdgeStyle;rounded=0;orthogonalLoop=1;jettySize=auto;html=1;endArrow=circlePlus;endFill=0;exitX=0.5;exitY=1;exitDx=0;exitDy=0;" parent="1" source="nLQTtZPJFhFnZga12o0D-26" edge="1">
          <mxGeometry relative="1" as="geometry">
            <mxPoint x="1739.5" y="490" as="targetPoint" />
            <mxPoint x="1649.5" y="460.00000000000006" as="sourcePoint" />
            <Array as="points">
              <mxPoint x="1739" y="460" />
            </Array>
          </mxGeometry>
        </mxCell>
        <mxCell id="nLQTtZPJFhFnZga12o0D-26" value="&lt;p style=&quot;margin:0px;margin-top:4px;text-align:center;&quot;&gt;&lt;i&gt;&amp;lt;&amp;lt;requirement&amp;gt;&amp;gt;&lt;/i&gt;&lt;br&gt;&lt;b&gt;Reliabilty&lt;/b&gt;&lt;/p&gt;&lt;hr size=&quot;1&quot; style=&quot;border-style:solid;&quot;&gt;&lt;p style=&quot;margin:0px;margin-left:4px;&quot;&gt;Id=&quot;NFR3&quot;&lt;/p&gt;&lt;p style=&quot;margin:0px;margin-left:4px;&quot;&gt;text=&quot;The system shall cache previously computed routes to reduce latency during repeat use.&quot;&lt;/p&gt;" style="verticalAlign=top;align=left;overflow=fill;html=1;whiteSpace=wrap;" parent="1" vertex="1">
          <mxGeometry x="1649.25" y="330" width="180" height="120" as="geometry" />
        </mxCell>
        <mxCell id="nLQTtZPJFhFnZga12o0D-29" style="edgeStyle=orthogonalEdgeStyle;rounded=0;orthogonalLoop=1;jettySize=auto;html=1;endArrow=circlePlus;endFill=0;exitX=0.5;exitY=1;exitDx=0;exitDy=0;" parent="1" source="nLQTtZPJFhFnZga12o0D-30" edge="1">
          <mxGeometry relative="1" as="geometry">
            <mxPoint x="1740" y="490" as="targetPoint" />
            <Array as="points">
              <mxPoint x="1939" y="460" />
              <mxPoint x="1740" y="460" />
            </Array>
          </mxGeometry>
        </mxCell>
        <mxCell id="nLQTtZPJFhFnZga12o0D-30" value="&lt;p style=&quot;margin: 4px 0px 0px; text-align: center;&quot;&gt;&lt;i&gt;&amp;lt;&amp;lt;requirement&amp;gt;&amp;gt;&lt;/i&gt;&lt;br&gt;&lt;span style=&quot;background-color: transparent; color: light-dark(rgb(0, 0, 0), rgb(255, 255, 255)); text-align: left;&quot;&gt;&lt;b&gt;Performance&lt;/b&gt;&lt;/span&gt;&lt;/p&gt;&lt;hr size=&quot;1&quot; style=&quot;border-style:solid;&quot;&gt;&lt;p style=&quot;margin:0px;margin-left:4px;&quot;&gt;Id=&quot;NFR4&quot;&lt;/p&gt;&lt;p style=&quot;margin:0px;margin-left:4px;&quot;&gt;text=&quot;The system shall calculate, re-calculate, and display the route quickly.&quot;&lt;/p&gt;" style="verticalAlign=top;align=left;overflow=fill;html=1;whiteSpace=wrap;" parent="1" vertex="1">
          <mxGeometry x="1849.25" y="330" width="180" height="120" as="geometry" />
        </mxCell>
        <mxCell id="nLQTtZPJFhFnZga12o0D-33" style="edgeStyle=orthogonalEdgeStyle;rounded=0;orthogonalLoop=1;jettySize=auto;html=1;entryX=0.5;entryY=0;entryDx=0;entryDy=0;endArrow=circlePlus;endFill=0;exitX=0.75;exitY=1;exitDx=0;exitDy=0;" parent="1" source="nLQTtZPJFhFnZga12o0D-34" target="nLQTtZPJFhFnZga12o0D-2" edge="1">
          <mxGeometry relative="1" as="geometry">
            <Array as="points">
              <mxPoint x="2184" y="460" />
              <mxPoint x="1740" y="460" />
            </Array>
          </mxGeometry>
        </mxCell>
        <mxCell id="nLQTtZPJFhFnZga12o0D-34" value="&lt;p style=&quot;margin:0px;margin-top:4px;text-align:center;&quot;&gt;&lt;i&gt;&amp;lt;&amp;lt;requirement&amp;gt;&amp;gt;&lt;/i&gt;&lt;br&gt;&lt;b&gt;Usability&lt;/b&gt;&lt;/p&gt;&lt;hr size=&quot;1&quot; style=&quot;border-style:solid;&quot;&gt;&lt;p style=&quot;margin:0px;margin-left:4px;&quot;&gt;Id=&quot;NFR5&quot;&lt;/p&gt;&lt;p style=&quot;margin:0px;margin-left:4px;&quot;&gt;text=&quot;The system shall be easy to use.&quot;&lt;/p&gt;" style="verticalAlign=top;align=left;overflow=fill;html=1;whiteSpace=wrap;" parent="1" vertex="1">
          <mxGeometry x="2049.25" y="330" width="180" height="120" as="geometry" />
        </mxCell>
        <mxCell id="nLQTtZPJFhFnZga12o0D-41" style="edgeStyle=orthogonalEdgeStyle;rounded=0;orthogonalLoop=1;jettySize=auto;html=1;exitX=0.5;exitY=0;exitDx=0;exitDy=0;endArrow=circlePlus;endFill=0;" parent="1" source="nLQTtZPJFhFnZga12o0D-40" target="nLQTtZPJFhFnZga12o0D-2" edge="1">
          <mxGeometry relative="1" as="geometry" />
        </mxCell>
        <mxCell id="nLQTtZPJFhFnZga12o0D-40" value="&lt;p style=&quot;margin:0px;margin-top:4px;text-align:center;&quot;&gt;&lt;i&gt;&amp;lt;&amp;lt;requirement&amp;gt;&amp;gt;&lt;/i&gt;&lt;br&gt;&lt;b&gt;Real-Time Optimization&lt;/b&gt;&lt;/p&gt;&lt;hr size=&quot;1&quot; style=&quot;border-style:solid;&quot;&gt;&lt;p style=&quot;margin:0px;margin-left:4px;&quot;&gt;Id=&quot;DR1.2&quot;&lt;/p&gt;&lt;p style=&quot;margin:0px;margin-left:4px;&quot;&gt;text=&quot;&lt;span style=&quot;background-color: transparent; font-family: Arial, sans-serif; white-space-collapse: preserve; color: light-dark(rgb(0, 0, 0), rgb(255, 255, 255));&quot;&gt;&lt;font&gt;The system shall account for traffic and real-time conditions.&lt;/font&gt;&lt;/span&gt;&lt;span style=&quot;background-color: transparent; text-wrap-mode: nowrap; color: rgba(0, 0, 0, 0); font-family: monospace; font-size: 0px;&quot;&gt;%3CmxGraphModel%3E%3Croot%3E%3CmxCell%20id%3D%220%22%2F%3E%3CmxCell%20id%3D%221%22%20parent%3D%220%22%2F%3E%3CmxCell%20id%3D%222%22%20value%3D%22%26lt%3Bp%20style%3D%26quot%3Bmargin%3A0px%3Bmargin-top%3A4px%3Btext-align%3Acenter%3B%26quot%3B%26gt%3B%26lt%3Bi%26gt%3B%26amp%3Blt%3B%26amp%3Blt%3Brequirement%26amp%3Bgt%3B%26amp%3Bgt%3B%26lt%3B%2Fi%26gt%3B%26lt%3Bbr%26gt%3B%26lt%3Bb%26gt%3BSave%20Route%26lt%3B%2Fb%26gt%3B%26lt%3B%2Fp%26gt%3B%26lt%3Bhr%20size%3D%26quot%3B1%26quot%3B%20style%3D%26quot%3Bborder-style%3Asolid%3B%26quot%3B%26gt%3B%26lt%3Bp%20style%3D%26quot%3Bmargin%3A0px%3Bmargin-left%3A4px%3B%26quot%3B%26gt%3BId%3D%26quot%3BMSR-1.6%26quot%3B%26lt%3B%2Fp%26gt%3B%26lt%3Bp%20style%3D%26quot%3Bmargin%3A0px%3Bmargin-left%3A4px%3B%26quot%3B%26gt%3Btext%3D%26quot%3B%26lt%3Bspan%20id%3D%26quot%3Bdocs-internal-guid-bf6a09b7-7fff-7673-dde0-d15843a8d085%26quot%3B%26gt%3B%26lt%3Bspan%20style%3D%26quot%3Bfont-family%3A%20Arial%2C%20sans-serif%3B%20background-color%3A%20transparent%3B%20font-variant-numeric%3A%20normal%3B%20font-variant-east-asian%3A%20normal%3B%20font-variant-alternates%3A%20normal%3B%20font-variant-position%3A%20normal%3B%20font-variant-emoji%3A%20normal%3B%20vertical-align%3A%20baseline%3B%20white-space-collapse%3A%20preserve%3B%26quot%3B%26gt%3B%26lt%3Bfont%26gt%3BThe%20system%20shall%20allow%20saving%20a%20multi-stop%20route%20as%20a%20favorite%20or%20recurring%20route.%26lt%3B%2Ffont%26gt%3B%26lt%3B%2Fspan%26gt%3B%26lt%3B%2Fspan%26gt%3B%26quot%3B%26lt%3B%2Fp%26gt%3B%22%20style%3D%22verticalAlign%3Dtop%3Balign%3Dleft%3Boverflow%3Dfill%3Bhtml%3D1%3BwhiteSpace%3Dwrap%3B%22%20vertex%3D%221%22%20parent%3D%221%22%3E%3CmxGeometry%20x%3D%221680%22%20y%3D%22841%22%20width%3D%22180%22%20height%3D%22120%22%20as%3D%22geometry%22%2F%3E%3C%2FmxCell%3E%3C%2Froot%3E%3C%2FmxGraphModel%3E&lt;/span&gt;&lt;span style=&quot;background-color: transparent; color: light-dark(rgb(0, 0, 0), rgb(255, 255, 255));&quot;&gt;&quot;&lt;/span&gt;&lt;/p&gt;" style="verticalAlign=top;align=left;overflow=fill;html=1;whiteSpace=wrap;" parent="1" vertex="1">
          <mxGeometry x="1888" y="660" width="180" height="120" as="geometry" />
        </mxCell>
        <mxCell id="nLQTtZPJFhFnZga12o0D-43" style="edgeStyle=orthogonalEdgeStyle;rounded=0;orthogonalLoop=1;jettySize=auto;html=1;exitX=0.5;exitY=0;exitDx=0;exitDy=0;entryX=0.5;entryY=1;entryDx=0;entryDy=0;endArrow=circlePlus;endFill=0;" parent="1" source="nLQTtZPJFhFnZga12o0D-42" target="nLQTtZPJFhFnZga12o0D-11" edge="1">
          <mxGeometry relative="1" as="geometry" />
        </mxCell>
        <mxCell id="nLQTtZPJFhFnZga12o0D-42" value="&lt;p style=&quot;margin:0px;margin-top:4px;text-align:center;&quot;&gt;&lt;i&gt;&amp;lt;&amp;lt;requirement&amp;gt;&amp;gt;&lt;/i&gt;&lt;br&gt;&lt;/p&gt;&lt;p style=&quot;margin:0px;margin-top:4px;text-align:center;&quot;&gt;&lt;i&gt;&lt;b&gt;Input Destination&lt;/b&gt;&lt;/i&gt;&lt;/p&gt;&lt;p style=&quot;margin:0px;margin-left:4px;&quot;&gt;Id=&quot;DR1.1.1&quot;&lt;/p&gt;&lt;p style=&quot;margin:0px;margin-left:4px;&quot;&gt;text=&quot;&lt;span id=&quot;docs-internal-guid-ffcac9a9-7fff-ea1d-9a6b-a21baaa114f1&quot;&gt;&lt;span style=&quot;font-family: Arial, sans-serif; background-color: transparent; font-variant-numeric: normal; font-variant-east-asian: normal; font-variant-alternates: normal; font-variant-position: normal; font-variant-emoji: normal; vertical-align: baseline; white-space-collapse: preserve;&quot;&gt;&lt;font&gt;The system shall allow the user to input a destination manually or via voice command.&quot;&lt;/font&gt;&lt;/span&gt;&lt;/span&gt;&lt;/p&gt;" style="verticalAlign=top;align=left;overflow=fill;html=1;whiteSpace=wrap;" parent="1" vertex="1">
          <mxGeometry x="1030" y="860" width="180" height="120" as="geometry" />
        </mxCell>
        <mxCell id="nLQTtZPJFhFnZga12o0D-45" style="edgeStyle=orthogonalEdgeStyle;rounded=0;orthogonalLoop=1;jettySize=auto;html=1;exitX=0.5;exitY=0;exitDx=0;exitDy=0;entryX=0.5;entryY=1;entryDx=0;entryDy=0;endArrow=circlePlus;endFill=0;" parent="1" source="nLQTtZPJFhFnZga12o0D-44" target="nLQTtZPJFhFnZga12o0D-11" edge="1">
          <mxGeometry relative="1" as="geometry" />
        </mxCell>
        <mxCell id="nLQTtZPJFhFnZga12o0D-44" value="&lt;p style=&quot;margin:0px;margin-top:4px;text-align:center;&quot;&gt;&lt;i&gt;&amp;lt;&amp;lt;requirement&amp;gt;&amp;gt;&lt;/i&gt;&lt;br&gt;&lt;/p&gt;&lt;p style=&quot;margin:0px;margin-top:4px;text-align:center;&quot;&gt;&lt;i&gt;&lt;b&gt;Input Filters&lt;/b&gt;&lt;/i&gt;&lt;/p&gt;&lt;p style=&quot;margin:0px;margin-left:4px;&quot;&gt;Id=&quot;DR1.1.3&quot;&lt;/p&gt;&lt;p style=&quot;margin:0px;margin-left:4px;&quot;&gt;text=&quot;&amp;nbsp;&lt;span style=&quot;background-color: transparent; color: light-dark(rgb(0, 0, 0), rgb(255, 255, 255));&quot;&gt;The system shall enable the user to apply route filters such as:&amp;nbsp;&lt;/span&gt;&lt;span style=&quot;background-color: transparent; color: light-dark(rgb(0, 0, 0), rgb(255, 255, 255));&quot;&gt;Avoid toll roads;&amp;nbsp;&lt;/span&gt;&lt;span style=&quot;background-color: transparent; color: light-dark(rgb(0, 0, 0), rgb(255, 255, 255));&quot;&gt;Avoid highways; Avoid Ferries.&quot;&lt;/span&gt;&lt;/p&gt;" style="verticalAlign=top;align=left;overflow=fill;html=1;whiteSpace=wrap;" parent="1" vertex="1">
          <mxGeometry x="1430" y="860" width="180" height="120" as="geometry" />
        </mxCell>
        <mxCell id="nLQTtZPJFhFnZga12o0D-48" style="edgeStyle=orthogonalEdgeStyle;rounded=0;orthogonalLoop=1;jettySize=auto;html=1;exitX=0.5;exitY=0;exitDx=0;exitDy=0;entryX=0.5;entryY=1;entryDx=0;entryDy=0;endArrow=circlePlus;endFill=0;" parent="1" source="nLQTtZPJFhFnZga12o0D-46" target="nLQTtZPJFhFnZga12o0D-11" edge="1">
          <mxGeometry relative="1" as="geometry" />
        </mxCell>
        <mxCell id="nLQTtZPJFhFnZga12o0D-46" value="&lt;p style=&quot;margin:0px;margin-top:4px;text-align:center;&quot;&gt;&lt;i&gt;&amp;lt;&amp;lt;requirement&amp;gt;&amp;gt;&lt;/i&gt;&lt;br&gt;&lt;/p&gt;&lt;p style=&quot;margin:0px;margin-top:4px;text-align:center;&quot;&gt;&lt;i&gt;&lt;b&gt;Estimated Time&lt;/b&gt;&lt;/i&gt;&lt;/p&gt;&lt;p style=&quot;margin:0px;margin-left:4px;&quot;&gt;Id=&quot;DR1.1.4&quot;&lt;/p&gt;&lt;p style=&quot;margin:0px;margin-left:4px;&quot;&gt;text=&quot;&amp;nbsp;&lt;span style=&quot;background-color: transparent; color: light-dark(rgb(0, 0, 0), rgb(255, 255, 255));&quot;&gt;The system shall display for each route the estimated time&lt;/span&gt;&lt;span style=&quot;background-color: transparent; color: light-dark(rgb(0, 0, 0), rgb(255, 255, 255));&quot;&gt;.&quot;&lt;/span&gt;&lt;span style=&quot;color: rgba(0, 0, 0, 0); font-family: monospace; font-size: 0px; text-wrap-mode: nowrap; background-color: transparent;&quot;&gt;%3CmxGraphModel%3E%3Croot%3E%3CmxCell%20id%3D%220%22%2F%3E%3CmxCell%20id%3D%221%22%20parent%3D%220%22%2F%3E%3CmxCell%20id%3D%222%22%20value%3D%22%26lt%3Bp%20style%3D%26quot%3Bmargin%3A0px%3Bmargin-top%3A4px%3Btext-align%3Acenter%3B%26quot%3B%26gt%3B%26lt%3Bi%26gt%3B%26amp%3Blt%3B%26amp%3Blt%3Brequirement%26amp%3Bgt%3B%26amp%3Bgt%3B%26lt%3B%2Fi%26gt%3B%26lt%3Bbr%26gt%3B%26lt%3B%2Fp%26gt%3B%26lt%3Bp%20style%3D%26quot%3Bmargin%3A0px%3Bmargin-top%3A4px%3Btext-align%3Acenter%3B%26quot%3B%26gt%3B%26lt%3Bi%26gt%3B%26lt%3Bb%26gt%3BInput%20Filters%26lt%3B%2Fb%26gt%3B%26lt%3B%2Fi%26gt%3B%26lt%3B%2Fp%26gt%3B%26lt%3Bp%20style%3D%26quot%3Bmargin%3A0px%3Bmargin-left%3A4px%3B%26quot%3B%26gt%3BId%3D%26quot%3BMSR-1.1.2%26quot%3B%26lt%3B%2Fp%26gt%3B%26lt%3Bp%20style%3D%26quot%3Bmargin%3A0px%3Bmargin-left%3A4px%3B%26quot%3B%26gt%3Btext%3D%26quot%3B%26amp%3Bnbsp%3B%26lt%3Bspan%20style%3D%26quot%3Bbackground-color%3A%20transparent%3B%20color%3A%20light-dark(rgb(0%2C%200%2C%200)%2C%20rgb(255%2C%20255%2C%20255))%3B%26quot%3B%26gt%3BThe%20system%20shall%20enable%20the%20user%20to%20apply%20route%20filters%20such%20as%3A%26amp%3Bnbsp%3B%26lt%3B%2Fspan%26gt%3B%26lt%3Bspan%20style%3D%26quot%3Bbackground-color%3A%20transparent%3B%20color%3A%20light-dark(rgb(0%2C%200%2C%200)%2C%20rgb(255%2C%20255%2C%20255))%3B%26quot%3B%26gt%3BAvoid%20toll%20roads%3B%26amp%3Bnbsp%3B%26lt%3B%2Fspan%26gt%3B%26lt%3Bspan%20style%3D%26quot%3Bbackground-color%3A%20transparent%3B%20color%3A%20light-dark(rgb(0%2C%200%2C%200)%2C%20rgb(255%2C%20255%2C%20255))%3B%26quot%3B%26gt%3BAvoid%20highways%3B%20Avoid%20Ferries.%26lt%3B%2Fspan%26gt%3B%26lt%3B%2Fp%26gt%3B%22%20style%3D%22verticalAlign%3Dtop%3Balign%3Dleft%3Boverflow%3Dfill%3Bhtml%3D1%3BwhiteSpace%3Dwrap%3B%22%20vertex%3D%221%22%20parent%3D%221%22%3E%3CmxGeometry%20x%3D%221530%22%20y%3D%22840%22%20width%3D%22180%22%20height%3D%22120%22%20as%3D%22geometry%22%2F%3E%3C%2FmxCell%3E%3C%2Froot%3E%3C%2FmxGraphModel%3E&lt;/span&gt;&lt;/p&gt;" style="verticalAlign=top;align=left;overflow=fill;html=1;whiteSpace=wrap;" parent="1" vertex="1">
          <mxGeometry x="1630" y="860" width="180" height="120" as="geometry" />
        </mxCell>
        <mxCell id="nLQTtZPJFhFnZga12o0D-50" style="edgeStyle=orthogonalEdgeStyle;rounded=0;orthogonalLoop=1;jettySize=auto;html=1;exitX=0.5;exitY=0;exitDx=0;exitDy=0;entryX=0.5;entryY=1;entryDx=0;entryDy=0;endArrow=circlePlus;endFill=0;" parent="1" source="nLQTtZPJFhFnZga12o0D-47" target="nLQTtZPJFhFnZga12o0D-11" edge="1">
          <mxGeometry relative="1" as="geometry" />
        </mxCell>
        <mxCell id="nLQTtZPJFhFnZga12o0D-47" value="&lt;p style=&quot;margin:0px;margin-top:4px;text-align:center;&quot;&gt;&lt;i&gt;&amp;lt;&amp;lt;requirement&amp;gt;&amp;gt;&lt;/i&gt;&lt;br&gt;&lt;/p&gt;&lt;p style=&quot;margin:0px;margin-top:4px;text-align:center;&quot;&gt;&lt;i&gt;&lt;b&gt;Route Path&amp;nbsp;&lt;/b&gt;&lt;/i&gt;&lt;/p&gt;&lt;p style=&quot;margin:0px;margin-left:4px;&quot;&gt;Id=&quot;DR1.1.5&quot;&lt;/p&gt;&lt;p style=&quot;margin:0px;margin-left:4px;&quot;&gt;text=&quot;&amp;nbsp;&lt;span style=&quot;background-color: transparent; color: light-dark(rgb(0, 0, 0), rgb(255, 255, 255));&quot;&gt;The system shall display for each route the path of that route&lt;/span&gt;&lt;span style=&quot;background-color: transparent; color: light-dark(rgb(0, 0, 0), rgb(255, 255, 255));&quot;&gt;.&quot;&lt;/span&gt;&lt;span style=&quot;color: rgba(0, 0, 0, 0); font-family: monospace; font-size: 0px; text-wrap-mode: nowrap; background-color: transparent;&quot;&gt;%3CmxGraphModel%3E%3Croot%3E%3CmxCell%20id%3D%220%22%2F%3E%3CmxCell%20id%3D%221%22%20parent%3D%220%22%2F%3E%3CmxCell%20id%3D%222%22%20value%3D%22%26lt%3Bp%20style%3D%26quot%3Bmargin%3A0px%3Bmargin-top%3A4px%3Btext-align%3Acenter%3B%26quot%3B%26gt%3B%26lt%3Bi%26gt%3B%26amp%3Blt%3B%26amp%3Blt%3Brequirement%26amp%3Bgt%3B%26amp%3Bgt%3B%26lt%3B%2Fi%26gt%3B%26lt%3Bbr%26gt%3B%26lt%3B%2Fp%26gt%3B%26lt%3Bp%20style%3D%26quot%3Bmargin%3A0px%3Bmargin-top%3A4px%3Btext-align%3Acenter%3B%26quot%3B%26gt%3B%26lt%3Bi%26gt%3B%26lt%3Bb%26gt%3BInput%20Filters%26lt%3B%2Fb%26gt%3B%26lt%3B%2Fi%26gt%3B%26lt%3B%2Fp%26gt%3B%26lt%3Bp%20style%3D%26quot%3Bmargin%3A0px%3Bmargin-left%3A4px%3B%26quot%3B%26gt%3BId%3D%26quot%3BMSR-1.1.2%26quot%3B%26lt%3B%2Fp%26gt%3B%26lt%3Bp%20style%3D%26quot%3Bmargin%3A0px%3Bmargin-left%3A4px%3B%26quot%3B%26gt%3Btext%3D%26quot%3B%26amp%3Bnbsp%3B%26lt%3Bspan%20style%3D%26quot%3Bbackground-color%3A%20transparent%3B%20color%3A%20light-dark(rgb(0%2C%200%2C%200)%2C%20rgb(255%2C%20255%2C%20255))%3B%26quot%3B%26gt%3BThe%20system%20shall%20enable%20the%20user%20to%20apply%20route%20filters%20such%20as%3A%26amp%3Bnbsp%3B%26lt%3B%2Fspan%26gt%3B%26lt%3Bspan%20style%3D%26quot%3Bbackground-color%3A%20transparent%3B%20color%3A%20light-dark(rgb(0%2C%200%2C%200)%2C%20rgb(255%2C%20255%2C%20255))%3B%26quot%3B%26gt%3BAvoid%20toll%20roads%3B%26amp%3Bnbsp%3B%26lt%3B%2Fspan%26gt%3B%26lt%3Bspan%20style%3D%26quot%3Bbackground-color%3A%20transparent%3B%20color%3A%20light-dark(rgb(0%2C%200%2C%200)%2C%20rgb(255%2C%20255%2C%20255))%3B%26quot%3B%26gt%3BAvoid%20highways%3B%20Avoid%20Ferries.%26lt%3B%2Fspan%26gt%3B%26lt%3B%2Fp%26gt%3B%22%20style%3D%22verticalAlign%3Dtop%3Balign%3Dleft%3Boverflow%3Dfill%3Bhtml%3D1%3BwhiteSpace%3Dwrap%3B%22%20vertex%3D%221%22%20parent%3D%221%22%3E%3CmxGeometry%20x%3D%221530%22%20y%3D%22840%22%20width%3D%22180%22%20height%3D%22120%22%20as%3D%22geometry%22%2F%3E%3C%2FmxCell%3E%3C%2Froot%3E%3C%2FmxGraphModel%3E&lt;/span&gt;&lt;/p&gt;" style="verticalAlign=top;align=left;overflow=fill;html=1;whiteSpace=wrap;" parent="1" vertex="1">
          <mxGeometry x="1830" y="860" width="180" height="120" as="geometry" />
        </mxCell>
        <mxCell id="nLQTtZPJFhFnZga12o0D-53" value="&lt;p style=&quot;margin:0px;margin-top:4px;text-align:center;&quot;&gt;&lt;i&gt;&amp;lt;&amp;lt;requirement&amp;gt;&amp;gt;&lt;/i&gt;&lt;br&gt;&lt;/p&gt;&lt;p style=&quot;margin:0px;margin-top:4px;text-align:center;&quot;&gt;&lt;span style=&quot;background-color: transparent; color: light-dark(rgb(0, 0, 0), rgb(255, 255, 255)); text-align: left;&quot;&gt;&lt;b&gt;&lt;i&gt;Input Departure&lt;/i&gt;&lt;/b&gt;&lt;/span&gt;&lt;/p&gt;&lt;p style=&quot;margin: 4px 0px 0px;&quot;&gt;&lt;span style=&quot;background-color: transparent; color: light-dark(rgb(0, 0, 0), rgb(255, 255, 255));&quot;&gt;Id=&quot;DR1.1.2&quot;&lt;/span&gt;&lt;/p&gt;&lt;p style=&quot;margin:0px;margin-left:4px;&quot;&gt;text=&quot;&lt;span style=&quot;font-family: Arial, sans-serif; white-space-collapse: preserve;&quot;&gt;The system shall allow the user to input a departure point manually, via voice command, or GPS location&lt;/span&gt;&lt;span style=&quot;background-color: transparent; color: light-dark(rgb(0, 0, 0), rgb(255, 255, 255));&quot;&gt;&quot;&lt;/span&gt;&lt;span style=&quot;color: rgba(0, 0, 0, 0); font-family: monospace; font-size: 0px; text-wrap-mode: nowrap; background-color: transparent;&quot;&gt;%3CmxGraphModel%3E%3Croot%3E%3CmxCell%20id%3D%220%22%2F%3E%3CmxCell%20id%3D%221%22%20parent%3D%220%22%2F%3E%3CmxCell%20id%3D%222%22%20value%3D%22%26lt%3Bp%20style%3D%26quot%3Bmargin%3A0px%3Bmargin-top%3A4px%3Btext-align%3Acenter%3B%26quot%3B%26gt%3B%26lt%3Bi%26gt%3B%26amp%3Blt%3B%26amp%3Blt%3Brequirement%26amp%3Bgt%3B%26amp%3Bgt%3B%26lt%3B%2Fi%26gt%3B%26lt%3Bbr%26gt%3B%26lt%3B%2Fp%26gt%3B%26lt%3Bp%20style%3D%26quot%3Bmargin%3A0px%3Bmargin-top%3A4px%3Btext-align%3Acenter%3B%26quot%3B%26gt%3B%26lt%3Bi%26gt%3B%26lt%3Bb%26gt%3BInput%20Filters%26lt%3B%2Fb%26gt%3B%26lt%3B%2Fi%26gt%3B%26lt%3B%2Fp%26gt%3B%26lt%3Bp%20style%3D%26quot%3Bmargin%3A0px%3Bmargin-left%3A4px%3B%26quot%3B%26gt%3BId%3D%26quot%3BMSR-1.1.2%26quot%3B%26lt%3B%2Fp%26gt%3B%26lt%3Bp%20style%3D%26quot%3Bmargin%3A0px%3Bmargin-left%3A4px%3B%26quot%3B%26gt%3Btext%3D%26quot%3B%26amp%3Bnbsp%3B%26lt%3Bspan%20style%3D%26quot%3Bbackground-color%3A%20transparent%3B%20color%3A%20light-dark(rgb(0%2C%200%2C%200)%2C%20rgb(255%2C%20255%2C%20255))%3B%26quot%3B%26gt%3BThe%20system%20shall%20enable%20the%20user%20to%20apply%20route%20filters%20such%20as%3A%26amp%3Bnbsp%3B%26lt%3B%2Fspan%26gt%3B%26lt%3Bspan%20style%3D%26quot%3Bbackground-color%3A%20transparent%3B%20color%3A%20light-dark(rgb(0%2C%200%2C%200)%2C%20rgb(255%2C%20255%2C%20255))%3B%26quot%3B%26gt%3BAvoid%20toll%20roads%3B%26amp%3Bnbsp%3B%26lt%3B%2Fspan%26gt%3B%26lt%3Bspan%20style%3D%26quot%3Bbackground-color%3A%20transparent%3B%20color%3A%20light-dark(rgb(0%2C%200%2C%200)%2C%20rgb(255%2C%20255%2C%20255))%3B%26quot%3B%26gt%3BAvoid%20highways%3B%20Avoid%20Ferries.%26lt%3B%2Fspan%26gt%3B%26lt%3B%2Fp%26gt%3B%22%20style%3D%22verticalAlign%3Dtop%3Balign%3Dleft%3Boverflow%3Dfill%3Bhtml%3D1%3BwhiteSpace%3Dwrap%3B%22%20vertex%3D%221%22%20parent%3D%221%22%3E%3CmxGeometry%20x%3D%221530%22%20y%3D%22840%22%20width%3D%22180%22%20height%3D%22120%22%20as%3D%22geometry%22%2F%3E%3C%2FmxCell%3E%3C%2Froot%3E%3C%2FmxGraphModel%3E&lt;/span&gt;&lt;/p&gt;" style="verticalAlign=top;align=left;overflow=fill;html=1;whiteSpace=wrap;" parent="1" vertex="1">
          <mxGeometry x="1230" y="860" width="180" height="120" as="geometry" />
        </mxCell>
        <mxCell id="nLQTtZPJFhFnZga12o0D-57" style="edgeStyle=orthogonalEdgeStyle;rounded=0;orthogonalLoop=1;jettySize=auto;html=1;exitX=0.5;exitY=0;exitDx=0;exitDy=0;entryX=0.75;entryY=1;entryDx=0;entryDy=0;dashed=1;endArrow=open;endFill=0;" parent="1" source="nLQTtZPJFhFnZga12o0D-55" target="nLQTtZPJFhFnZga12o0D-40" edge="1">
          <mxGeometry relative="1" as="geometry" />
        </mxCell>
        <mxCell id="nLQTtZPJFhFnZga12o0D-59" style="edgeStyle=orthogonalEdgeStyle;rounded=0;orthogonalLoop=1;jettySize=auto;html=1;exitX=0;exitY=0.5;exitDx=0;exitDy=0;entryX=0.5;entryY=1;entryDx=0;entryDy=0;dashed=1;endArrow=open;endFill=0;" parent="1" source="nLQTtZPJFhFnZga12o0D-55" target="nLQTtZPJFhFnZga12o0D-42" edge="1">
          <mxGeometry relative="1" as="geometry" />
        </mxCell>
        <mxCell id="nLQTtZPJFhFnZga12o0D-55" value="&lt;p style=&quot;margin:0px;margin-top:4px;text-align:center;&quot;&gt;&lt;i&gt;&amp;lt;&amp;lt;requirement&amp;gt;&amp;gt;&lt;/i&gt;&lt;br&gt;&lt;/p&gt;&lt;p style=&quot;margin:0px;margin-top:4px;text-align:center;&quot;&gt;&lt;span style=&quot;background-color: transparent; color: light-dark(rgb(0, 0, 0), rgb(255, 255, 255)); text-align: left;&quot;&gt;&lt;b&gt;&lt;i&gt;GPS Decision&lt;/i&gt;&lt;/b&gt;&lt;/span&gt;&lt;/p&gt;&lt;p style=&quot;margin: 4px 0px 0px;&quot;&gt;&lt;span style=&quot;background-color: transparent; color: light-dark(rgb(0, 0, 0), rgb(255, 255, 255));&quot;&gt;Id=&quot;D1&quot;&lt;/span&gt;&lt;/p&gt;&lt;p style=&quot;margin:0px;margin-left:4px;&quot;&gt;text=&quot;&amp;nbsp;&lt;span style=&quot;background-color: transparent; color: light-dark(rgb(0, 0, 0), rgb(255, 255, 255));&quot;&gt;The system shall use the GPS sensor to detect the user location.&lt;/span&gt;&lt;span style=&quot;background-color: transparent; color: light-dark(rgb(0, 0, 0), rgb(255, 255, 255));&quot;&gt;&quot;&lt;/span&gt;&lt;span style=&quot;color: rgba(0, 0, 0, 0); font-family: monospace; font-size: 0px; text-wrap-mode: nowrap; background-color: transparent;&quot;&gt;%3CmxGraphModel%3E%3Croot%3E%3CmxCell%20id%3D%220%22%2F%3E%3CmxCell%20id%3D%221%22%20parent%3D%220%22%2F%3E%3CmxCell%20id%3D%222%22%20value%3D%22%26lt%3Bp%20style%3D%26quot%3Bmargin%3A0px%3Bmargin-top%3A4px%3Btext-align%3Acenter%3B%26quot%3B%26gt%3B%26lt%3Bi%26gt%3B%26amp%3Blt%3B%26amp%3Blt%3Brequirement%26amp%3Bgt%3B%26amp%3Bgt%3B%26lt%3B%2Fi%26gt%3B%26lt%3Bbr%26gt%3B%26lt%3B%2Fp%26gt%3B%26lt%3Bp%20style%3D%26quot%3Bmargin%3A0px%3Bmargin-top%3A4px%3Btext-align%3Acenter%3B%26quot%3B%26gt%3B%26lt%3Bi%26gt%3B%26lt%3Bb%26gt%3BInput%20Filters%26lt%3B%2Fb%26gt%3B%26lt%3B%2Fi%26gt%3B%26lt%3B%2Fp%26gt%3B%26lt%3Bp%20style%3D%26quot%3Bmargin%3A0px%3Bmargin-left%3A4px%3B%26quot%3B%26gt%3BId%3D%26quot%3BMSR-1.1.2%26quot%3B%26lt%3B%2Fp%26gt%3B%26lt%3Bp%20style%3D%26quot%3Bmargin%3A0px%3Bmargin-left%3A4px%3B%26quot%3B%26gt%3Btext%3D%26quot%3B%26amp%3Bnbsp%3B%26lt%3Bspan%20style%3D%26quot%3Bbackground-color%3A%20transparent%3B%20color%3A%20light-dark(rgb(0%2C%200%2C%200)%2C%20rgb(255%2C%20255%2C%20255))%3B%26quot%3B%26gt%3BThe%20system%20shall%20enable%20the%20user%20to%20apply%20route%20filters%20such%20as%3A%26amp%3Bnbsp%3B%26lt%3B%2Fspan%26gt%3B%26lt%3Bspan%20style%3D%26quot%3Bbackground-color%3A%20transparent%3B%20color%3A%20light-dark(rgb(0%2C%200%2C%200)%2C%20rgb(255%2C%20255%2C%20255))%3B%26quot%3B%26gt%3BAvoid%20toll%20roads%3B%26amp%3Bnbsp%3B%26lt%3B%2Fspan%26gt%3B%26lt%3Bspan%20style%3D%26quot%3Bbackground-color%3A%20transparent%3B%20color%3A%20light-dark(rgb(0%2C%200%2C%200)%2C%20rgb(255%2C%20255%2C%20255))%3B%26quot%3B%26gt%3BAvoid%20highways%3B%20Avoid%20Ferries.%26lt%3B%2Fspan%26gt%3B%26lt%3B%2Fp%26gt%3B%22%20style%3D%22verticalAlign%3Dtop%3Balign%3Dleft%3Boverflow%3Dfill%3Bhtml%3D1%3BwhiteSpace%3Dwrap%3B%22%20vertex%3D%221%22%20parent%3D%221%22%3E%3CmxGeometry%20x%3D%221530%22%20y%3D%22840%22%20width%3D%22180%22%20height%3D%22120%22%20as%3D%22geometry%22%2F%3E%3C%2FmxCell%3E%3C%2Froot%3E%3C%2FmxGraphModel%3E&lt;/span&gt;&lt;/p&gt;" style="verticalAlign=top;align=left;overflow=fill;html=1;whiteSpace=wrap;" parent="1" vertex="1">
          <mxGeometry x="2080" y="970" width="180" height="120" as="geometry" />
        </mxCell>
        <mxCell id="nLQTtZPJFhFnZga12o0D-58" value="&amp;lt;deriveReqt&amp;gt;&amp;gt;" style="text;html=1;align=center;verticalAlign=middle;resizable=0;points=[];autosize=1;strokeColor=none;fillColor=none;" parent="1" vertex="1">
          <mxGeometry x="2063" y="840" width="100" height="30" as="geometry" />
        </mxCell>
        <mxCell id="nLQTtZPJFhFnZga12o0D-60" value="&amp;lt;deriveReqt&amp;gt;&amp;gt;" style="text;html=1;align=center;verticalAlign=middle;resizable=0;points=[];autosize=1;strokeColor=none;fillColor=none;" parent="1" vertex="1">
          <mxGeometry x="1530" y="1030" width="100" height="30" as="geometry" />
        </mxCell>
        <mxCell id="nLQTtZPJFhFnZga12o0D-61" value="&lt;p style=&quot;margin:0px;margin-top:4px;text-align:center;&quot;&gt;&lt;i&gt;&amp;lt;&amp;lt;block&amp;gt;&amp;gt;&lt;/i&gt;&lt;br&gt;&lt;/p&gt;&lt;p style=&quot;margin:0px;margin-top:4px;text-align:center;&quot;&gt;&lt;span style=&quot;background-color: transparent; color: light-dark(rgb(0, 0, 0), rgb(255, 255, 255)); text-align: left;&quot;&gt;&lt;b&gt;&lt;i&gt;GPS&amp;nbsp;&lt;/i&gt;&lt;/b&gt;&lt;/span&gt;&lt;/p&gt;&lt;p style=&quot;margin: 4px 0px 0px;&quot;&gt;&lt;span style=&quot;background-color: transparent; color: light-dark(rgba(0, 0, 0, 0), rgb(237, 237, 237)); font-family: monospace; font-size: 0px; text-wrap-mode: nowrap;&quot;&gt;%3CmxGraphModel%3E%3Croot%3E%3CmxCell%20id%3D%220%22%2F%3E%3CmxCell%20id%3D%221%22%20parent%3D%220%22%2F%3E%3CmxCell%20id%3D%222%22%20value%3D%22%26lt%3Bp%20style%3D%26quot%3Bmargin%3A0px%3Bmargin-top%3A4px%3Btext-align%3Acenter%3B%26quot%3B%26gt%3B%26lt%3Bi%26gt%3B%26amp%3Blt%3B%26amp%3Blt%3Brequirement%26amp%3Bgt%3B%26amp%3Bgt%3B%26lt%3B%2Fi%26gt%3B%26lt%3Bbr%26gt%3B%26lt%3B%2Fp%26gt%3B%26lt%3Bp%20style%3D%26quot%3Bmargin%3A0px%3Bmargin-top%3A4px%3Btext-align%3Acenter%3B%26quot%3B%26gt%3B%26lt%3Bi%26gt%3B%26lt%3Bb%26gt%3BInput%20Filters%26lt%3B%2Fb%26gt%3B%26lt%3B%2Fi%26gt%3B%26lt%3B%2Fp%26gt%3B%26lt%3Bp%20style%3D%26quot%3Bmargin%3A0px%3Bmargin-left%3A4px%3B%26quot%3B%26gt%3BId%3D%26quot%3BMSR-1.1.2%26quot%3B%26lt%3B%2Fp%26gt%3B%26lt%3Bp%20style%3D%26quot%3Bmargin%3A0px%3Bmargin-left%3A4px%3B%26quot%3B%26gt%3Btext%3D%26quot%3B%26amp%3Bnbsp%3B%26lt%3Bspan%20style%3D%26quot%3Bbackground-color%3A%20transparent%3B%20color%3A%20light-dark(rgb(0%2C%200%2C%200)%2C%20rgb(255%2C%20255%2C%20255))%3B%26quot%3B%26gt%3BThe%20system%20shall%20enable%20the%20user%20to%20apply%20route%20filters%20such%20as%3A%26amp%3Bnbsp%3B%26lt%3B%2Fspan%26gt%3B%26lt%3Bspan%20style%3D%26quot%3Bbackground-color%3A%20transparent%3B%20color%3A%20light-dark(rgb(0%2C%200%2C%200)%2C%20rgb(255%2C%20255%2C%20255))%3B%26quot%3B%26gt%3BAvoid%20toll%20roads%3B%26amp%3Bnbsp%3B%26lt%3B%2Fspan%26gt%3B%26lt%3Bspan%20style%3D%26quot%3Bbackground-color%3A%20transparent%3B%20color%3A%20light-dark(rgb(0%2C%200%2C%200)%2C%20rgb(255%2C%20255%2C%20255))%3B%26quot%3B%26gt%3BAvoid%20highways%3B%20Avoid%20Ferries.%26lt%3B%2Fspan%26gt%3B%26lt%3B%2Fp%26gt%3B%22%20style%3D%22verticalAlign%3Dtop%3Balign%3Dleft%3Boverflow%3Dfill%3Bhtml%3D1%3BwhiteSpace%3Dwrap%3B%22%20vertex%3D%221%22%20parent%3D%221%22%3E%3CmxGeometry%20x%3D%221530%22%20y%3D%22840%22%20width%3D%22180%22%20height%3D%22120%22%20as%3D%22geometry%22%2F%3E%3C%2FmxCell%3E%3C%2Froot%3E%3C%2FmxGraphModel%3E&lt;/span&gt;&lt;/p&gt;" style="verticalAlign=top;align=left;overflow=fill;html=1;whiteSpace=wrap;" parent="1" vertex="1">
          <mxGeometry x="2351.5" y="1005" width="80" height="50" as="geometry" />
        </mxCell>
        <mxCell id="nLQTtZPJFhFnZga12o0D-66" style="edgeStyle=orthogonalEdgeStyle;rounded=0;orthogonalLoop=1;jettySize=auto;html=1;exitX=0;exitY=0.25;exitDx=0;exitDy=0;dashed=1;endArrow=open;endFill=0;" parent="1" source="nLQTtZPJFhFnZga12o0D-61" edge="1">
          <mxGeometry relative="1" as="geometry">
            <mxPoint x="2260" y="1017" as="targetPoint" />
          </mxGeometry>
        </mxCell>
        <mxCell id="nLQTtZPJFhFnZga12o0D-67" value="&amp;lt;&amp;lt;satisfy&amp;gt;&amp;gt;" style="text;html=1;align=center;verticalAlign=middle;resizable=0;points=[];autosize=1;strokeColor=none;fillColor=none;" parent="1" vertex="1">
          <mxGeometry x="2260" y="990" width="90" height="30" as="geometry" />
        </mxCell>
        <mxCell id="nLQTtZPJFhFnZga12o0D-71" style="edgeStyle=orthogonalEdgeStyle;rounded=0;orthogonalLoop=1;jettySize=auto;html=1;exitX=0.5;exitY=1;exitDx=0;exitDy=0;exitPerimeter=0;entryX=0.5;entryY=0;entryDx=0;entryDy=0;endArrow=none;startFill=0;dashed=1;" parent="1" source="nLQTtZPJFhFnZga12o0D-70" target="nLQTtZPJFhFnZga12o0D-61" edge="1">
          <mxGeometry relative="1" as="geometry" />
        </mxCell>
        <mxCell id="nLQTtZPJFhFnZga12o0D-70" value="&lt;p style=&quot;text-align: left; margin: 4px 0px 0px;&quot;&gt;&lt;b&gt;&lt;i&gt;satisfies&lt;/i&gt;&lt;/b&gt;&lt;/p&gt;&lt;p style=&quot;text-align: left; margin: 4px 0px 0px;&quot;&gt;&lt;i&gt;&amp;lt;&amp;lt;requirement&amp;gt;&amp;gt; GPS Decision&lt;/i&gt;&lt;/p&gt;" style="shape=note;size=20;whiteSpace=wrap;html=1;" parent="1" vertex="1">
          <mxGeometry x="2302" y="885" width="179" height="70" as="geometry" />
        </mxCell>
        <mxCell id="nLQTtZPJFhFnZga12o0D-73" style="edgeStyle=orthogonalEdgeStyle;rounded=0;orthogonalLoop=1;jettySize=auto;html=1;exitX=0.5;exitY=0;exitDx=0;exitDy=0;entryX=0.5;entryY=1;entryDx=0;entryDy=0;dashed=1;endArrow=open;endFill=0;" parent="1" source="nLQTtZPJFhFnZga12o0D-72" target="nLQTtZPJFhFnZga12o0D-53" edge="1">
          <mxGeometry relative="1" as="geometry" />
        </mxCell>
        <mxCell id="nLQTtZPJFhFnZga12o0D-74" style="edgeStyle=orthogonalEdgeStyle;rounded=0;orthogonalLoop=1;jettySize=auto;html=1;exitX=0.5;exitY=0;exitDx=0;exitDy=0;entryX=0.5;entryY=1;entryDx=0;entryDy=0;dashed=1;endArrow=open;endFill=0;" parent="1" source="nLQTtZPJFhFnZga12o0D-72" target="nLQTtZPJFhFnZga12o0D-42" edge="1">
          <mxGeometry relative="1" as="geometry" />
        </mxCell>
        <mxCell id="nLQTtZPJFhFnZga12o0D-72" value="&lt;p style=&quot;margin:0px;margin-top:4px;text-align:center;&quot;&gt;&lt;i&gt;&amp;lt;&amp;lt;requirement&amp;gt;&amp;gt;&lt;/i&gt;&lt;br&gt;&lt;/p&gt;&lt;p style=&quot;margin:0px;margin-top:4px;text-align:center;&quot;&gt;&lt;span style=&quot;background-color: transparent; color: light-dark(rgb(0, 0, 0), rgb(255, 255, 255)); text-align: left;&quot;&gt;&lt;b&gt;&lt;i&gt;Voice Input&lt;/i&gt;&lt;/b&gt;&lt;/span&gt;&lt;/p&gt;&lt;p style=&quot;margin: 4px 0px 0px;&quot;&gt;&lt;span style=&quot;background-color: transparent; color: light-dark(rgb(0, 0, 0), rgb(255, 255, 255));&quot;&gt;Id=&quot;D2&quot;&lt;/span&gt;&lt;/p&gt;&lt;p style=&quot;margin:0px;margin-left:4px;&quot;&gt;text=&quot;&amp;nbsp;&lt;span style=&quot;background-color: transparent;&quot;&gt;The system shall use the microphone sensor to register the input provided by voice&lt;font color=&quot;rgba(0, 0, 0, 0)&quot;&gt;&quot;&lt;/font&gt;&lt;/span&gt;&lt;span style=&quot;color: rgba(0, 0, 0, 0); font-family: monospace; font-size: 0px; text-wrap-mode: nowrap; background-color: transparent;&quot;&gt;%3CmxGraphModel%3E%3Croot%3E%3CmxCell%20id%3D%220%22%2F%3E%3CmxCell%20id%3D%221%22%20parent%3D%220%22%2F%3E%3CmxCell%20id%3D%222%22%20value%3D%22%26lt%3Bp%20style%3D%26quot%3Bmargin%3A0px%3Bmargin-top%3A4px%3Btext-align%3Acenter%3B%26quot%3B%26gt%3B%26lt%3Bi%26gt%3B%26amp%3Blt%3B%26amp%3Blt%3Brequirement%26amp%3Bgt%3B%26amp%3Bgt%3B%26lt%3B%2Fi%26gt%3B%26lt%3Bbr%26gt%3B%26lt%3B%2Fp%26gt%3B%26lt%3Bp%20style%3D%26quot%3Bmargin%3A0px%3Bmargin-top%3A4px%3Btext-align%3Acenter%3B%26quot%3B%26gt%3B%26lt%3Bi%26gt%3B%26lt%3Bb%26gt%3BInput%20Filters%26lt%3B%2Fb%26gt%3B%26lt%3B%2Fi%26gt%3B%26lt%3B%2Fp%26gt%3B%26lt%3Bp%20style%3D%26quot%3Bmargin%3A0px%3Bmargin-left%3A4px%3B%26quot%3B%26gt%3BId%3D%26quot%3BMSR-1.1.2%26quot%3B%26lt%3B%2Fp%26gt%3B%26lt%3Bp%20style%3D%26quot%3Bmargin%3A0px%3Bmargin-left%3A4px%3B%26quot%3B%26gt%3Btext%3D%26quot%3B%26amp%3Bnbsp%3B%26lt%3Bspan%20style%3D%26quot%3Bbackground-color%3A%20transparent%3B%20color%3A%20light-dark(rgb(0%2C%200%2C%200)%2C%20rgb(255%2C%20255%2C%20255))%3B%26quot%3B%26gt%3BThe%20system%20shall%20enable%20the%20user%20to%20apply%20route%20filters%20such%20as%3A%26amp%3Bnbsp%3B%26lt%3B%2Fspan%26gt%3B%26lt%3Bspan%20style%3D%26quot%3Bbackground-color%3A%20transparent%3B%20color%3A%20light-dark(rgb(0%2C%200%2C%200)%2C%20rgb(255%2C%20255%2C%20255))%3B%26quot%3B%26gt%3BAvoid%20toll%20roads%3B%26amp%3Bnbsp%3B%26lt%3B%2Fspan%26gt%3B%26lt%3Bspan%20style%3D%26quot%3Bbackground-color%3A%20transparent%3B%20color%3A%20light-dark(rgb(0%2C%200%2C%200)%2C%20rgb(255%2C%20255%2C%20255))%3B%26quot%3B%26gt%3BAvoid%20highways%3B%20Avoid%20Ferries.%26lt%3B%2Fspan%26gt%3B%26lt%3B%2Fp%26gt%3B%22%20style%3D%22verticalAlign%3Dtop%3Balign%3Dleft%3Boverflow%3Dfill%3Bhtml%3D1%3BwhiteSpace%3Dwrap%3B%22%20vertex%3D%221%22%20parent%3D%221%22%3E%3CmxGeometry%20x%3D%221530%22%20y%3D%22840%22%20width%3D%22180%22%20height%3D%22120%22%20as%3D%22geometry%22%2F%3E%3C%2FmxCell%3E%3C%2Froot%3E%3C%2FmxGraphModel%3E&lt;/span&gt;&lt;/p&gt;" style="verticalAlign=top;align=left;overflow=fill;html=1;whiteSpace=wrap;" parent="1" vertex="1">
          <mxGeometry x="1170" y="1160" width="180" height="110" as="geometry" />
        </mxCell>
        <mxCell id="nLQTtZPJFhFnZga12o0D-75" value="&amp;lt;deriveReqt&amp;gt;&amp;gt;" style="text;html=1;align=center;verticalAlign=middle;resizable=0;points=[];autosize=1;strokeColor=none;fillColor=none;" parent="1" vertex="1">
          <mxGeometry x="1320" y="1040" width="100" height="30" as="geometry" />
        </mxCell>
        <mxCell id="nLQTtZPJFhFnZga12o0D-76" value="&amp;lt;deriveReqt&amp;gt;&amp;gt;" style="text;html=1;align=center;verticalAlign=middle;resizable=0;points=[];autosize=1;strokeColor=none;fillColor=none;" parent="1" vertex="1">
          <mxGeometry x="1030" y="1040" width="100" height="30" as="geometry" />
        </mxCell>
        <mxCell id="nLQTtZPJFhFnZga12o0D-84" style="edgeStyle=orthogonalEdgeStyle;rounded=0;orthogonalLoop=1;jettySize=auto;html=1;exitX=1;exitY=0.5;exitDx=0;exitDy=0;entryX=0;entryY=0.5;entryDx=0;entryDy=0;endArrow=open;endFill=0;dashed=1;" parent="1" source="nLQTtZPJFhFnZga12o0D-80" target="nLQTtZPJFhFnZga12o0D-72" edge="1">
          <mxGeometry relative="1" as="geometry" />
        </mxCell>
        <mxCell id="nLQTtZPJFhFnZga12o0D-80" value="&lt;p style=&quot;margin:0px;margin-top:4px;text-align:center;&quot;&gt;&lt;i&gt;&amp;lt;&amp;lt;block&amp;gt;&amp;gt;&lt;/i&gt;&lt;br&gt;&lt;/p&gt;&lt;p style=&quot;margin:0px;margin-top:4px;text-align:center;&quot;&gt;&lt;span style=&quot;background-color: transparent; text-align: left;&quot;&gt;&lt;b&gt;&lt;i&gt;Microphone&lt;/i&gt;&lt;/b&gt;&lt;/span&gt;&lt;span style=&quot;background-color: transparent; color: light-dark(rgba(0, 0, 0, 0), rgb(237, 237, 237)); font-family: monospace; font-size: 0px; text-wrap-mode: nowrap; text-align: left;&quot;&gt;%3CmxGraphModel%3E%3Croot%3E%3CmxCell%20id%3D%220%22%2F%3E%3CmxCell%20id%3D%221%22%20parent%3D%220%22%2F%3E%3CmxCell%20id%3D%222%22%20value%3D%22%26lt%3Bp%20style%3D%26quot%3Bmargin%3A0px%3Bmargin-top%3A4px%3Btext-align%3Acenter%3B%26quot%3B%26gt%3B%26lt%3Bi%26gt%3B%26amp%3Blt%3B%26amp%3Blt%3Brequirement%26amp%3Bgt%3B%26amp%3Bgt%3B%26lt%3B%2Fi%26gt%3B%26lt%3Bbr%26gt%3B%26lt%3B%2Fp%26gt%3B%26lt%3Bp%20style%3D%26quot%3Bmargin%3A0px%3Bmargin-top%3A4px%3Btext-align%3Acenter%3B%26quot%3B%26gt%3B%26lt%3Bi%26gt%3B%26lt%3Bb%26gt%3BInput%20Filters%26lt%3B%2Fb%26gt%3B%26lt%3B%2Fi%26gt%3B%26lt%3B%2Fp%26gt%3B%26lt%3Bp%20style%3D%26quot%3Bmargin%3A0px%3Bmargin-left%3A4px%3B%26quot%3B%26gt%3BId%3D%26quot%3BMSR-1.1.2%26quot%3B%26lt%3B%2Fp%26gt%3B%26lt%3Bp%20style%3D%26quot%3Bmargin%3A0px%3Bmargin-left%3A4px%3B%26quot%3B%26gt%3Btext%3D%26quot%3B%26amp%3Bnbsp%3B%26lt%3Bspan%20style%3D%26quot%3Bbackground-color%3A%20transparent%3B%20color%3A%20light-dark(rgb(0%2C%200%2C%200)%2C%20rgb(255%2C%20255%2C%20255))%3B%26quot%3B%26gt%3BThe%20system%20shall%20enable%20the%20user%20to%20apply%20route%20filters%20such%20as%3A%26amp%3Bnbsp%3B%26lt%3B%2Fspan%26gt%3B%26lt%3Bspan%20style%3D%26quot%3Bbackground-color%3A%20transparent%3B%20color%3A%20light-dark(rgb(0%2C%200%2C%200)%2C%20rgb(255%2C%20255%2C%20255))%3B%26quot%3B%26gt%3BAvoid%20toll%20roads%3B%26amp%3Bnbsp%3B%26lt%3B%2Fspan%26gt%3B%26lt%3Bspan%20style%3D%26quot%3Bbackground-color%3A%20transparent%3B%20color%3A%20light-dark(rgb(0%2C%200%2C%200)%2C%20rgb(255%2C%20255%2C%20255))%3B%26quot%3B%26gt%3BAvoid%20highways%3B%20Avoid%20Ferries.%26lt%3B%2Fspan%26gt%3B%26lt%3B%2Fp%26gt%3B%22%20style%3D%22verticalAlign%3Dtop%3Balign%3Dleft%3Boverflow%3Dfill%3Bhtml%3D1%3BwhiteSpace%3Dwrap%3B%22%20vertex%3D%221%22%20parent%3D%221%22%3E%3CmxGeometry%20x%3D%221530%22%20y%3D%22840%22%20width%3D%22180%22%20height%3D%22120%22%20as%3D%22geometry%22%2F%3E%3C%2FmxCell%3E%3C%2Froot%3E%3C%2FmxGraphModel%3E&lt;/span&gt;&lt;/p&gt;" style="verticalAlign=top;align=left;overflow=fill;html=1;whiteSpace=wrap;" parent="1" vertex="1">
          <mxGeometry x="1000.5" y="1210" width="80" height="50" as="geometry" />
        </mxCell>
        <mxCell id="nLQTtZPJFhFnZga12o0D-81" style="edgeStyle=orthogonalEdgeStyle;rounded=0;orthogonalLoop=1;jettySize=auto;html=1;exitX=0.5;exitY=1;exitDx=0;exitDy=0;exitPerimeter=0;entryX=0.5;entryY=0;entryDx=0;entryDy=0;endArrow=none;startFill=0;dashed=1;" parent="1" source="nLQTtZPJFhFnZga12o0D-82" target="nLQTtZPJFhFnZga12o0D-80" edge="1">
          <mxGeometry relative="1" as="geometry" />
        </mxCell>
        <mxCell id="nLQTtZPJFhFnZga12o0D-82" value="&lt;p style=&quot;text-align: left; margin: 4px 0px 0px;&quot;&gt;&lt;b&gt;&lt;i&gt;satisfies&lt;/i&gt;&lt;/b&gt;&lt;/p&gt;&lt;p style=&quot;text-align: left; margin: 4px 0px 0px;&quot;&gt;&lt;i&gt;&amp;lt;&amp;lt;requirement&amp;gt;&amp;gt; Voice Input&lt;/i&gt;&lt;/p&gt;" style="shape=note;size=20;whiteSpace=wrap;html=1;" parent="1" vertex="1">
          <mxGeometry x="851" y="1099" width="179" height="70" as="geometry" />
        </mxCell>
        <mxCell id="nLQTtZPJFhFnZga12o0D-85" value="&amp;lt;&amp;lt;satisfy&amp;gt;&amp;gt;" style="text;html=1;align=center;verticalAlign=middle;resizable=0;points=[];autosize=1;strokeColor=none;fillColor=none;" parent="1" vertex="1">
          <mxGeometry x="1075" y="1180" width="90" height="30" as="geometry" />
        </mxCell>
        <mxCell id="nLQTtZPJFhFnZga12o0D-94" value="&lt;p style=&quot;margin:0px;margin-top:4px;text-align:center;&quot;&gt;&lt;i&gt;&amp;lt;&amp;lt;requirement&amp;gt;&amp;gt;&lt;/i&gt;&lt;br&gt;&lt;b&gt;Security&lt;/b&gt;&lt;/p&gt;&lt;hr size=&quot;1&quot; style=&quot;border-style:solid;&quot;&gt;&lt;p style=&quot;margin:0px;margin-left:4px;&quot;&gt;Id=&quot;NFR1&quot;&lt;/p&gt;&lt;p style=&quot;margin:0px;margin-left:4px;&quot;&gt;text=&quot;The system shall provide security to the users.&quot;&lt;/p&gt;" style="verticalAlign=top;align=left;overflow=fill;html=1;whiteSpace=wrap;" parent="1" vertex="1">
          <mxGeometry x="1250" y="330" width="180" height="120" as="geometry" />
        </mxCell>
        <mxCell id="nLQTtZPJFhFnZga12o0D-102" value="" style="edgeStyle=orthogonalEdgeStyle;rounded=0;orthogonalLoop=1;jettySize=auto;html=1;endArrow=circlePlus;endFill=0;" parent="1" source="nLQTtZPJFhFnZga12o0D-95" target="nLQTtZPJFhFnZga12o0D-94" edge="1">
          <mxGeometry relative="1" as="geometry">
            <Array as="points">
              <mxPoint x="1220" y="310" />
              <mxPoint x="1340" y="310" />
            </Array>
          </mxGeometry>
        </mxCell>
        <mxCell id="nLQTtZPJFhFnZga12o0D-95" value="&lt;p style=&quot;margin:0px;margin-top:4px;text-align:center;&quot;&gt;&lt;i&gt;&amp;lt;&amp;lt;requirement&amp;gt;&amp;gt;&lt;/i&gt;&lt;br&gt;&lt;b&gt;Store Location&lt;/b&gt;&lt;/p&gt;&lt;hr size=&quot;1&quot; style=&quot;border-style:solid;&quot;&gt;&lt;p style=&quot;margin:0px;margin-left:4px;&quot;&gt;Id=&quot;NFR1.1&quot;&lt;/p&gt;&lt;p style=&quot;margin:0px;margin-left:4px;&quot;&gt;text=&quot;The system shall not store user location history without explicit permission.&quot;&lt;/p&gt;" style="verticalAlign=top;align=left;overflow=fill;html=1;whiteSpace=wrap;" parent="1" vertex="1">
          <mxGeometry x="1130" y="180" width="180" height="120" as="geometry" />
        </mxCell>
        <mxCell id="nLQTtZPJFhFnZga12o0D-101" style="edgeStyle=orthogonalEdgeStyle;rounded=0;orthogonalLoop=1;jettySize=auto;html=1;exitX=0.5;exitY=1;exitDx=0;exitDy=0;entryX=0.5;entryY=0;entryDx=0;entryDy=0;endArrow=circlePlus;endFill=0;" parent="1" source="nLQTtZPJFhFnZga12o0D-96" target="nLQTtZPJFhFnZga12o0D-94" edge="1">
          <mxGeometry relative="1" as="geometry">
            <Array as="points">
              <mxPoint x="1420" y="310" />
              <mxPoint x="1340" y="310" />
            </Array>
          </mxGeometry>
        </mxCell>
        <mxCell id="nLQTtZPJFhFnZga12o0D-96" value="&lt;p style=&quot;margin:0px;margin-top:4px;text-align:center;&quot;&gt;&lt;i&gt;&amp;lt;&amp;lt;requirement&amp;gt;&amp;gt;&lt;/i&gt;&lt;br&gt;&lt;b&gt;Encryption&lt;/b&gt;&lt;/p&gt;&lt;hr size=&quot;1&quot; style=&quot;border-style:solid;&quot;&gt;&lt;p style=&quot;margin:0px;margin-left:4px;&quot;&gt;Id=&quot;NFR1.2&quot;&lt;/p&gt;&lt;p style=&quot;margin:0px;margin-left:4px;&quot;&gt;text=&quot;All communication with the routing server shall be encrypted&quot;&lt;/p&gt;" style="verticalAlign=top;align=left;overflow=fill;html=1;whiteSpace=wrap;" parent="1" vertex="1">
          <mxGeometry x="1330" y="180" width="180" height="120" as="geometry" />
        </mxCell>
        <mxCell id="nLQTtZPJFhFnZga12o0D-99" style="edgeStyle=orthogonalEdgeStyle;rounded=0;orthogonalLoop=1;jettySize=auto;html=1;exitX=0.5;exitY=1;exitDx=0;exitDy=0;entryX=0.5;entryY=0;entryDx=0;entryDy=0;endArrow=circlePlus;endFill=0;" parent="1" source="nLQTtZPJFhFnZga12o0D-97" target="nLQTtZPJFhFnZga12o0D-34" edge="1">
          <mxGeometry relative="1" as="geometry" />
        </mxCell>
        <mxCell id="nLQTtZPJFhFnZga12o0D-97" value="&lt;p style=&quot;margin:0px;margin-top:4px;text-align:center;&quot;&gt;&lt;i&gt;&amp;lt;&amp;lt;requirement&amp;gt;&amp;gt;&lt;/i&gt;&lt;br&gt;&lt;b&gt;UI&lt;/b&gt;&lt;/p&gt;&lt;hr size=&quot;1&quot; style=&quot;border-style:solid;&quot;&gt;&lt;p style=&quot;margin:0px;margin-left:4px;&quot;&gt;Id=&quot;NFR5.1&quot;&lt;/p&gt;&lt;p style=&quot;margin:0px;margin-left:4px;&quot;&gt;text=&quot;The UI shall allow route filtering in no more than &lt;strong data-end=&quot;1777&quot; data-start=&quot;1765&quot;&gt;two taps&lt;/strong&gt;&quot;&lt;/p&gt;" style="verticalAlign=top;align=left;overflow=fill;html=1;whiteSpace=wrap;" parent="1" vertex="1">
          <mxGeometry x="2049.25" y="170" width="180" height="120" as="geometry" />
        </mxCell>
      </root>
    </mxGraphModel>
  </diagram>
</mxfile>
